<svg width="49" height="45" viewBox="0 0 49 45" fill="none" xmlns="http://www.w3.org/2000/svg">
<rect width="32" height="33" rx="7" transform="matrix(-0.958951 -0.283572 -0.283572 0.958951 43.7156 13.0742)" fill="#5172A8"/>
<path d="M43.6732 14.3792C42.7553 11.595 39.9298 9.90946 37.0438 10.4244C33.841 10.9959 31.7078 14.0556 32.2793 17.2584L33.7911 25.7312C34.4219 29.2666 37.7993 31.6213 41.3347 30.9905C45.2303 30.2954 47.6071 26.3111 46.3681 22.553L43.6732 14.3792Z" fill="black"/>
<path d="M10.0472 5.51413C11.8763 3.22307 15.1116 2.62556 17.6383 4.11219C20.4424 5.76203 21.3781 9.37265 19.7282 12.1767L15.3638 19.5946C13.5426 22.6899 9.55712 23.7227 6.46189 21.9016C3.05132 19.8949 2.20877 15.3327 4.6776 12.2402L10.0472 5.51413Z" fill="black"/>
<path d="M30.9524 26.5679V28.7409" stroke="black" stroke-width="3" stroke-linecap="round"/>
<path d="M18.0229 23.0913V25.047" stroke="black" stroke-width="3" stroke-linecap="round"/>
<path d="M23.1296 33.4131C22.8513 33.3822 22.5279 33.2849 22.2604 33.1958" stroke="black" stroke-width="3" stroke-linecap="round"/>
</svg>
