<svg width="39" height="39" viewBox="0 0 39 39" fill="none" xmlns="http://www.w3.org/2000/svg">
<path d="M39 18.525C39 11.05 32.825 4.875 25.35 4.875H13.65C6.175 4.875 0 11.05 0 18.525C0 19.825 0.325 21.125 0.8125 22.1V27.625C0.8125 31.2 3.7375 34.125 7.3125 34.125H7.9625C10.5625 34.125 12.8375 32.5 13.975 30.225L14.95 27.625H24.375L25.5125 30.225C26.4875 32.6625 28.925 34.125 31.525 34.125H32.175C35.75 34.125 38.675 31.2 38.675 27.625V21.45V21.2875C38.8375 20.475 39 19.5 39 18.525ZM35.425 20.3125L35.2625 20.9625V27.625C35.2625 29.4125 33.8 30.875 32.0125 30.875H31.3625C30.0625 30.875 28.925 30.0625 28.4375 28.925L26.4875 24.375H12.8375L10.8875 28.925C10.4 30.0625 9.2625 30.875 7.9625 30.875H7.3125C5.525 30.875 4.0625 29.4125 4.0625 27.625V21.45L3.7375 20.8C3.4125 20.15 3.25 19.3375 3.25 18.525C3.25 12.8375 7.9625 8.125 13.65 8.125H25.35C31.0375 8.125 35.75 12.8375 35.75 18.525C35.75 19.175 35.5875 19.825 35.425 20.3125Z" fill="#FF87B1"/>
<path d="M13 11.375C13.975 11.375 14.625 12.025 14.625 13V19.5C14.625 20.475 13.975 21.125 13 21.125C12.025 21.125 11.375 20.475 11.375 19.5V13C11.375 12.025 12.025 11.375 13 11.375Z" fill="#FF87B1"/>
<path d="M8.125 16.25C8.125 15.275 8.775 14.625 9.75 14.625H16.25C17.225 14.625 17.875 15.275 17.875 16.25C17.875 17.225 17.225 17.875 16.25 17.875H9.75C8.775 17.875 8.125 17.225 8.125 16.25Z" fill="#FF87B1"/>
<path d="M22.75 14.625C22.75 13.65 23.4 13 24.375 13C25.35 13 26 13.65 26 14.625C26 15.6 25.35 16.25 24.375 16.25C23.4 16.25 22.75 15.6 22.75 14.625ZM26.8125 19.5C26.8125 18.525 27.4625 17.875 28.4375 17.875C29.4125 17.875 30.0625 18.525 30.0625 19.5C30.0625 20.475 29.4125 21.125 28.4375 21.125C27.4625 21.125 26.8125 20.475 26.8125 19.5Z" fill="#FF87B1"/>
</svg>
