<svg width="55" height="54" viewBox="0 0 55 54" fill="none" xmlns="http://www.w3.org/2000/svg">
<rect width="32" height="33" rx="7" transform="matrix(-0.958951 -0.283572 -0.283572 0.958951 43.9797 22.0742)" fill="#595959"/>
<path d="M31.2163 35.5679V37.7409" stroke="#FF87B1" stroke-width="3" stroke-linecap="round"/>
<path d="M18.2869 32.0911V34.0468" stroke="#FF87B1" stroke-width="3" stroke-linecap="round"/>
<path d="M23.5205 43.9742C23.2485 43.7533 22.3015 41.998 22.1115 41.5218" stroke="#FF87B1" stroke-width="2" stroke-linecap="round"/>
<path d="M19.659 42.9308C20.0053 42.8769 21.7074 41.8374 22.1114 41.5217" stroke="#FF87B1" stroke-width="2" stroke-linecap="round"/>
<path d="M14.1679 6.71786C12.9582 5.76547 11.1712 6.47975 10.9512 8.00356L8.89086 22.2776C8.67091 23.8014 10.183 24.9919 11.6126 24.4205L25.0045 19.0678C26.4342 18.4964 26.7091 16.5916 25.4994 15.6392L14.1679 6.71786Z" fill="#FF87B1"/>
<path d="M47.1862 18.1829C47.7124 16.6671 46.3291 15.1798 44.7791 15.5951L33.4696 18.6255C32.0466 19.0068 31.5102 20.7435 32.4703 21.8608L39.7762 30.363C40.7815 31.5328 42.6767 31.1726 43.1825 29.7154L47.1862 18.1829Z" fill="#FF87B1"/>
</svg>
