<svg width="49" height="45" viewBox="0 0 49 45" fill="none" xmlns="http://www.w3.org/2000/svg">
<rect x="5" y="13.0742" width="32" height="33" rx="7" transform="rotate(-16.4735 5 13.0742)" fill="#595959"/>
<path d="M5.04235 14.3792C5.96026 11.595 8.78575 9.90946 11.6718 10.4244C14.8746 10.9959 17.0078 14.0556 16.4363 17.2584L14.9245 25.7312C14.2937 29.2666 10.9163 31.6213 7.38088 30.9905C3.48529 30.2954 1.1085 26.3111 2.34752 22.553L5.04235 14.3792Z" fill="black"/>
<path d="M38.6683 5.51413C36.8393 3.22307 33.604 2.62556 31.0773 4.11219C28.2732 5.76203 27.3375 9.37265 28.9873 12.1767L33.3518 19.5946C35.1729 22.6899 39.1585 23.7227 42.2537 21.9016C45.6643 19.8949 46.5068 15.3327 44.038 12.2402L38.6683 5.51413Z" fill="black"/>
<path d="M17.7632 26.5679V28.7409" stroke="black" stroke-width="3" stroke-linecap="round"/>
<path d="M30.6926 23.0913V25.047" stroke="black" stroke-width="3" stroke-linecap="round"/>
<path d="M25.5859 33.4131C25.8643 33.3822 26.1877 33.2849 26.4551 33.1958" stroke="black" stroke-width="3" stroke-linecap="round"/>
</svg>
