<svg width="24" height="35" viewBox="0 0 24 35" fill="none" xmlns="http://www.w3.org/2000/svg">
<path d="M10.0344 2.45721C10.4431 0.283158 13.5569 0.283159 13.9656 2.45722L15.538 10.8229C15.654 11.44 16.053 11.9667 16.6156 12.2455L22.3838 15.104C23.8664 15.8387 23.8664 17.9533 22.3838 18.688L16.6442 21.5323C16.0656 21.8191 15.661 22.3675 15.5579 23.005L13.9743 32.7946C13.6118 35.0354 10.3881 35.0354 10.0257 32.7946L8.4421 23.005C8.33898 22.3675 7.93442 21.8191 7.35581 21.5323L1.61621 18.688C0.133605 17.9533 0.133602 15.8387 1.6162 15.104L7.38444 12.2455C7.94699 11.9667 8.34599 11.44 8.46197 10.8229L10.0344 2.45721Z" fill="#FF87B1"/>
</svg>
