<svg width="61" height="53" viewBox="0 0 61 53" fill="none" xmlns="http://www.w3.org/2000/svg">
<rect x="17.849" y="7.70793" width="32" height="33" rx="7" transform="rotate(32.7435 17.849 7.70793)" fill="#FDEDD8"/>
<path d="M25.3617 18.7256C23.2047 19.9312 20.486 19.3185 19.0546 17.3043C17.506 15.1252 18.0172 12.1033 20.1963 10.5547L30.5427 3.20205C33.0312 1.43361 36.4821 2.01733 38.2506 4.50582C40.1559 7.18689 39.3127 10.9284 36.4416 12.5331L25.3617 18.7256Z" fill="#D6968A"/>
<path d="M35.8828 20.2676C33.1251 21.3439 31.6217 24.3253 32.3957 27.1826C33.2328 30.2723 36.416 32.0985 39.5058 31.2615L54.3325 27.2448C57.8631 26.2884 59.9499 22.6509 58.9934 19.1203C57.9634 15.3181 53.8623 13.25 50.1926 14.6823L35.8828 20.2676Z" fill="#D6968A"/>
<path d="M15.9686 26.1862L14.3232 27.6056" stroke="#CB978D" stroke-width="3" stroke-linecap="round"/>
<path d="M27.0463 33.7052L25.5654 34.9827" stroke="#CB978D" stroke-width="3" stroke-linecap="round"/>
<path d="M15.8954 36.5808C16.1006 36.7714 16.3855 36.9528 16.6277 37.097" stroke="#CB978D" stroke-width="3" stroke-linecap="round"/>
</svg>
