<svg width="46" height="53" viewBox="0 0 46 53" fill="none" xmlns="http://www.w3.org/2000/svg">
<rect x="5.06244" y="21.0743" width="32" height="33" rx="7" transform="rotate(-16.4735 5.06244 21.0743)" fill="#EEC3BE"/>
<path d="M16.4926 20.8432C17.6202 22.5717 17.2609 24.8726 15.6599 26.175V26.175C13.9321 27.5804 11.3921 27.3191 9.98667 25.5914L2.91586 16.8991C1.30547 14.9194 1.60484 12.0091 3.58453 10.3987V10.3987C5.71264 8.66756 8.87155 9.16094 10.3704 11.4586L16.4926 20.8432Z" fill="black"/>
<path d="M24.5995 17.3172C24.2823 19.3146 25.5333 21.2265 27.4906 21.7357V21.7357C29.5905 22.2819 31.7357 21.0224 32.2819 18.9225L35.4374 6.7923C36.0683 4.36713 34.6137 1.88973 32.1886 1.25886V1.25886C29.5953 0.584263 26.9854 2.29203 26.5651 4.93844L24.5995 17.3172Z" fill="black"/>
<path d="M17.8259 34.568V36.741" stroke="black" stroke-width="3" stroke-linecap="round"/>
<path d="M30.7553 31.0912V33.0469" stroke="black" stroke-width="3" stroke-linecap="round"/>
<path d="M25.6486 41.413C25.927 41.3821 26.2504 41.2848 26.5178 41.1957" stroke="black" stroke-width="3" stroke-linecap="round"/>
</svg>
