<svg width="46" height="53" viewBox="0 0 46 53" fill="none" xmlns="http://www.w3.org/2000/svg">
<rect x="5.0625" y="21.0742" width="32" height="33" rx="7" transform="rotate(-16.4735 5.0625 21.0742)" fill="#FF87B1"/>
<path d="M16.4927 20.8431C17.6203 22.5716 17.2609 24.8725 15.6599 26.1748C13.9322 27.5803 11.3922 27.319 9.98673 25.5913L2.91592 16.899C1.30553 14.9193 1.6049 12.009 3.58459 10.3986C5.7127 8.66744 8.87161 9.16082 10.3705 11.4584L16.4927 20.8431Z" fill="black"/>
<path d="M24.5995 17.3171C24.2824 19.3145 25.5333 21.2264 27.4906 21.7355C29.5906 22.2818 31.7357 21.0223 32.282 18.9224L35.4375 6.79218C36.0684 4.36701 34.6138 1.88961 32.1886 1.25874C29.5954 0.584141 26.9854 2.29191 26.5652 4.93832L24.5995 17.3171Z" fill="black"/>
<path d="M17.8259 34.5679V36.7409" stroke="black" stroke-width="3" stroke-linecap="round"/>
<path d="M30.7554 31.0911V33.0468" stroke="black" stroke-width="3" stroke-linecap="round"/>
<path d="M25.6487 41.4129C25.927 41.3819 26.2505 41.2847 26.5179 41.1956" stroke="black" stroke-width="3" stroke-linecap="round"/>
</svg>
