<svg width="64" height="78" viewBox="0 0 64 78" fill="none" xmlns="http://www.w3.org/2000/svg">
<path d="M35.0466 30.2246C35.2208 29.7005 34.9372 29.1344 34.4131 28.9602C33.889 28.786 33.3229 29.0696 33.1487 29.5937L34.0976 29.9092L35.0466 30.2246ZM31.1954 67.4168L32.1814 67.25C31.2723 61.8748 31.1994 54.9777 31.7556 48.2158C32.3119 41.4537 33.491 34.9043 35.0466 30.2246L34.0976 29.9092L33.1487 29.5937C31.5264 34.4742 30.3266 41.193 29.7624 48.0519C29.1981 54.911 29.263 61.9876 30.2094 67.5836L31.1954 67.4168Z" fill="black"/>
<path d="M26.1224 72.2108C26.0241 72.7543 26.3851 73.2745 26.9285 73.3728C27.472 73.471 27.9922 73.1101 28.0905 72.5666L27.1064 72.3887L26.1224 72.2108ZM27.1064 72.3887L28.0905 72.5666C28.8751 68.2256 30.7166 62.9466 33.0045 57.9374C35.2926 52.9279 37.9948 48.2591 40.4638 45.1252L39.6783 44.5064L38.8928 43.8875C36.2928 47.1875 33.5137 52.0087 31.1853 57.1065C28.8568 62.2044 26.9468 67.6496 26.1224 72.2108L27.1064 72.3887Z" fill="black"/>
<path d="M24.4639 43.8471C24.5058 43.2964 24.0933 42.8161 23.5426 42.7742C22.9919 42.7323 22.5115 43.1447 22.4696 43.6954L23.4668 43.7713L24.4639 43.8471ZM35.812 68.5797L36.7282 68.1787C34.8702 63.9333 31.5238 59.6212 28.8832 55.583C26.1662 51.428 24.1816 47.5576 24.4639 43.8471L23.4668 43.7713L22.4696 43.6954C22.1306 48.1521 24.5051 52.5421 27.2093 56.6776C29.99 60.93 33.127 64.9385 34.8959 68.9806L35.812 68.5797Z" fill="black"/>
<ellipse cx="37.41" cy="21.2446" rx="11.4656" ry="10.7012" transform="rotate(-19.8203 37.41 21.2446)" fill="#FF87B1"/>
<ellipse cx="44.6029" cy="38.7947" rx="9.32173" ry="8.70028" transform="rotate(0.0252178 44.6029 38.7947)" fill="#595959"/>
<ellipse cx="20.6231" cy="37.0404" rx="9.32173" ry="8.70028" transform="rotate(-110.929 20.6231 37.0404)" fill="#595959"/>
<path d="M33.0918 60.6123C33.0678 61.1201 32.0193 61.4832 30.7497 61.4232C29.4802 61.3633 28.4705 60.903 28.4945 60.3952C28.5185 59.8874 29.5671 59.5243 30.8366 59.5843C32.1061 59.6442 33.1158 60.1045 33.0918 60.6123Z" fill="#5172A8"/>
<circle cx="21.3899" cy="30.3322" r="1.38073" transform="rotate(15.1778 21.3899 30.3322)" fill="#5172A8"/>
<circle cx="26.0869" cy="41.144" r="1.38073" transform="rotate(15.1778 26.0869 41.144)" fill="#5172A8"/>
<circle cx="15.02" cy="36.2341" r="1.38073" transform="rotate(15.1778 15.02 36.2341)" fill="#5172A8"/>
<circle cx="26.6445" cy="35.5727" r="1.38073" transform="rotate(15.1778 26.6445 35.5727)" fill="#5172A8"/>
<circle cx="20.5913" cy="36.7917" r="1.38073" transform="rotate(15.1778 20.5913 36.7917)" fill="#5172A8"/>
<circle cx="18.9043" cy="43.0105" r="1.38073" transform="rotate(15.1778 18.9043 43.0105)" fill="#5172A8"/>
</svg>
